<?xml version="1.0" encoding="UTF-8" standalone="no"?>
<!-- Created with Inkscape (http://www.inkscape.org/) -->

<svg
   xmlns:dc="http://purl.org/dc/elements/1.1/"
   xmlns:cc="http://creativecommons.org/ns#"
   xmlns:rdf="http://www.w3.org/1999/02/22-rdf-syntax-ns#"
   xmlns:svg="http://www.w3.org/2000/svg"
   xmlns="http://www.w3.org/2000/svg"
   xmlns:sodipodi="http://sodipodi.sourceforge.net/DTD/sodipodi-0.dtd"
   xmlns:inkscape="http://www.inkscape.org/namespaces/inkscape"
   width="44.721386mm"
   height="51.704224mm"
   viewBox="0 0 158.4616 183.20394"
   id="svg3988"
   version="1.1"
   inkscape:version="0.91 r13725"
   sodipodi:docname="logo.svg">
  <defs
     id="defs3990">
    <clipPath
       clipPathUnits="userSpaceOnUse"
       id="clipPath80">
      <path
         d="m 0,1692 1278,0 L 1278,0 0,0 0,1692 Z"
         id="path82"
         inkscape:connector-curvature="0" />
    </clipPath>
  </defs>
  <sodipodi:namedview
     id="base"
     pagecolor="#ffffff"
     bordercolor="#666666"
     borderopacity="1.0"
     inkscape:pageopacity="0"
     inkscape:pageshadow="2"
     inkscape:zoom="5.0271842"
     inkscape:cx="79.230818"
     inkscape:cy="91.900336"
     inkscape:document-units="px"
     inkscape:current-layer="layer1"
     showgrid="false"
     fit-margin-top="0"
     fit-margin-left="0"
     fit-margin-right="0"
     fit-margin-bottom="0"
     inkscape:window-width="1920"
     inkscape:window-height="1176"
     inkscape:window-x="0"
     inkscape:window-y="0"
     inkscape:window-maximized="1" />
  <metadata
     id="metadata3993">
    <rdf:RDF>
      <cc:Work
         rdf:about="">
        <dc:format>image/svg+xml</dc:format>
        <dc:type
           rdf:resource="http://purl.org/dc/dcmitype/StillImage" />
        <dc:title></dc:title>
      </cc:Work>
    </rdf:RDF>
  </metadata>
  <g
     inkscape:label="Calque 1"
     inkscape:groupmode="layer"
     id="layer1"
     transform="translate(-426.2791,-583.58135)">
    <rect
       style="opacity:1;fill:#000000;fill-opacity:1;stroke:#000000;stroke-width:8.2626009;stroke-linecap:round;stroke-linejoin:round;stroke-miterlimit:4;stroke-dasharray:none;stroke-dashoffset:0;stroke-opacity:1"
       id="rect4284"
       width="150.19901"
       height="174.94135"
       x="430.4104"
       y="587.71265"
       ry="0" />
    <text
       y="739.93524"
       x="429.72037"
       transform="scale(0.9999964,1.0000036)"
       style="font-variant:normal;font-weight:normal;font-stretch:normal;font-size:17.27781296px;font-family:'Times New Roman';-inkscape-font-specification:TimesNewRomanPSMT;writing-mode:lr-tb;fill:#ffffff;fill-opacity:1;fill-rule:nonzero;stroke:none"
       id="text70">
      <tspan
         x="429.72037 442.19492 449.8663 458.50522 464.2587 471.93008 476.73331 481.05276 486.80624 495.44516 501.19864 509.83755 515.59106 529.0332 536.70453 541.50775 546.31104 554.94989"
         y="739.93524"
         sodipodi:role="line"
         id="tspan72">Neural Information</tspan>
      <tspan
         x="428.25174 437.85818 443.61172 452.25064 459.92197 467.59329 474.31442 481.03549 485.83871 494.47757 503.11649 507.43594 517.04242 525.68127 532.40234 537.20557 544.87695 558.31909"
         y="760.66858"
         sodipodi:role="line"
         id="tspan74">Processing Systems</tspan>
    </text>
    <g
       transform="matrix(1.25,0,0,-1.25,215.66117,2653.7996)"
       id="g76">
      <g
         id="g78"
         clip-path="url(#clipPath80)">
        <g
           id="g84"
           transform="translate(206.04,1636.1973)">
          <path
             d="m 0,0 c 0,-9.616 -7.794,-17.415 -17.413,-17.415 -9.616,0 -17.413,7.799 -17.413,17.415 0,9.616 7.797,17.415 17.413,17.415 C -7.794,17.415 0,9.616 0,0 Z"
             style="fill:none;stroke:#ffffff;stroke-width:1.11000001;stroke-linecap:butt;stroke-linejoin:miter;stroke-miterlimit:4;stroke-dasharray:none;stroke-opacity:1"
             id="path86"
             inkscape:connector-curvature="0" />
        </g>
        <g
           id="g88"
           transform="translate(278.4517,1636.1973)">
          <path
             d="m 0,0 c 0,-9.616 -7.791,-17.415 -17.414,-17.415 -9.616,0 -17.41,7.799 -17.41,17.415 0,9.616 7.794,17.415 17.41,17.415 C -7.791,17.415 0,9.616 0,0 Z"
             style="fill:none;stroke:#ffffff;stroke-width:1.11000001;stroke-linecap:butt;stroke-linejoin:miter;stroke-miterlimit:4;stroke-dasharray:none;stroke-opacity:1"
             id="path90"
             inkscape:connector-curvature="0" />
        </g>
        <g
           id="g92"
           transform="translate(206.04,1563.7847)">
          <path
             d="m 0,0 c 0,-9.616 -7.794,-17.413 -17.413,-17.413 -9.616,0 -17.413,7.797 -17.413,17.413 0,9.618 7.797,17.414 17.413,17.414 C -7.794,17.414 0,9.618 0,0 Z"
             style="fill:none;stroke:#ffffff;stroke-width:1.11000001;stroke-linecap:butt;stroke-linejoin:miter;stroke-miterlimit:4;stroke-dasharray:none;stroke-opacity:1"
             id="path94"
             inkscape:connector-curvature="0" />
        </g>
        <g
           id="g96"
           transform="translate(278.4517,1563.7847)">
          <path
             d="m 0,0 c 0,-9.616 -7.791,-17.413 -17.414,-17.413 -9.616,0 -17.41,7.797 -17.41,17.413 0,9.618 7.794,17.414 17.41,17.414 C -7.791,17.414 0,9.618 0,0 Z"
             style="fill:none;stroke:#ffffff;stroke-width:1.11000001;stroke-linecap:butt;stroke-linejoin:miter;stroke-miterlimit:4;stroke-dasharray:none;stroke-opacity:1"
             id="path98"
             inkscape:connector-curvature="0" />
        </g>
        <g
           id="g100"
           transform="translate(194.4561,1633.8486)">
          <path
             d="m 0,0 c -0.476,3.129 1.126,9.148 -1.308,10.097 -0.257,0.099 -1.069,-0.158 -1.188,0.476 0.276,0.632 1.783,0.357 2.731,0.357 1.031,0 2.297,0.198 2.852,-0.242 C 3.07,9.721 1.66,10.139 1.305,9.502 0.69,4.453 1.365,-1.881 0.95,-7.131 c -0.872,-0.036 -1.446,0.875 -1.901,1.43 -3.328,4.076 -6.634,8.532 -10.215,12.47 0.471,-2.454 -1.153,-9.742 0.236,-11.879 0.553,-0.85 1.345,-0.513 2.018,-1.187 -0.297,-0.634 -1.881,-0.356 -2.851,-0.356 -1.067,0 -2.355,-0.177 -2.968,0.238 0.079,0.771 1.425,0.415 1.901,0.95 0.83,0.932 0.355,4.592 0.355,6.653 0,2.435 0.397,5.465 0,7.009 -0.297,1.188 -1.761,1.742 -2.256,2.257 l 0,0.234 c 1.603,0.122 3.801,0.695 5.344,0.242 0.831,-0.242 1.722,-1.922 2.378,-2.733 C -4.813,5.505 -2.139,2.276 0,0"
             style="fill:#ffffff;fill-opacity:1;fill-rule:nonzero;stroke:none"
             id="path102"
             inkscape:connector-curvature="0" />
        </g>
        <g
           id="g104"
           transform="translate(265.2563,1644.5371)">
          <path
             d="m 0,0 c 0.103,-0.789 -0.909,-0.434 -1.306,-0.591 -1.882,-0.753 -1.305,-4.297 -1.305,-7.721 0,-2.497 -0.438,-5.605 0.118,-7.129 0.395,-1.087 1.782,-1.128 2.493,-1.544 -0.35,-0.655 -1.406,-0.357 -2.138,-0.357 -2.118,0 -5.166,-0.196 -7.008,0.239 0.313,0.831 1.465,0.218 2.021,0.95 0.73,0.967 0.237,5.723 0.237,7.365 0,2.97 0.079,5.603 -0.121,7.484 -0.234,0.83 -1.584,0.554 -2.137,1.069 l 0,0.235 c -0.021,0.142 0.02,0.221 0.12,0.242 C -6.177,0.081 -2.631,0.558 0,0"
             style="fill:#ffffff;fill-opacity:1;fill-rule:nonzero;stroke:none"
             id="path106"
             inkscape:connector-curvature="0" />
        </g>
        <g
           id="g108"
           transform="translate(265.8535,1573.2607)">
          <path
             d="m 0,0 c 0.396,-1.346 0.396,-4.356 0,-5.701 -1.032,0.456 -0.753,1.11 -1.189,1.901 -0.439,0.812 -1.349,2.02 -2.257,2.492 -2.517,1.329 -5.525,-0.373 -4.754,-2.969 0.698,-2.332 5.346,-3.128 7.128,-4.512 0.852,-0.654 1.902,-1.82 2.141,-3.093 0.99,-5.363 -4.493,-7.501 -9.148,-6.292 -0.494,0.139 -1.308,0.692 -1.782,0.594 -0.771,-0.158 -0.276,-0.891 -1.306,-0.948 -0.399,1.62 -0.399,4.906 0,6.533 0.991,-0.145 0.991,-1.368 1.306,-2.14 0.274,-0.636 0.536,-1.485 1.188,-2.138 1.801,-1.801 7.006,-1.998 6.653,1.781 -0.042,0.437 -0.378,1.03 -0.594,1.305 -1.663,2.161 -6.159,2.397 -7.963,5.347 -1.897,3.127 0.637,8.16 4.752,7.84 0.675,-0.04 1.548,-0.156 2.379,-0.356 0.674,-0.159 1.661,-0.673 2.137,-0.592 C -0.477,-0.79 -0.932,-0.176 0,0"
             style="fill:#ffffff;fill-opacity:1;fill-rule:nonzero;stroke:none"
             id="path110"
             inkscape:connector-curvature="0" />
        </g>
        <g
           id="g112"
           transform="translate(190.415,1564.3516)">
          <path
             d="m 0,0 c -0.851,-0.436 -1.702,-0.218 -2.849,-0.355 0.08,2.495 -0.159,5.306 0.12,7.602 1.167,0.478 2.55,0.397 3.323,-0.358 C 1.762,5.763 2.038,1.05 0,0 M 5.467,6.06 C 3.584,9.74 -3.78,8.019 -9.146,8.435 -9.246,8.417 -9.284,8.337 -9.265,8.198 l 0,-0.237 c 0.358,-0.535 1.406,-0.12 1.9,-0.832 0.852,-1.247 0.24,-5.208 0.24,-7.605 0,-2.968 0.214,-5.837 -0.358,-7.483 -0.376,-0.536 -1.724,-0.098 -1.782,-0.95 1.702,-0.436 4.651,-0.238 6.652,-0.238 0.674,0 1.742,-0.296 2.019,0.357 -0.732,0.574 -1.365,0.257 -1.9,0.951 -0.99,1.348 -0.08,4.71 -0.235,6.532 2.454,0.119 4.73,-0.019 6.531,1.07 1.665,1.012 2.89,3.902 1.665,6.297"
             style="fill:#ffffff;fill-opacity:1;fill-rule:nonzero;stroke:none"
             id="path114"
             inkscape:connector-curvature="0" />
        </g>
        <path
           d="m 278.452,1546.372 -107.383,0 0,107.24 107.383,0 0,-107.24 z"
           style="fill:none;stroke:#ffffff;stroke-width:1.11000001;stroke-linecap:butt;stroke-linejoin:miter;stroke-miterlimit:4;stroke-dasharray:none;stroke-opacity:1"
           id="path116"
           inkscape:connector-curvature="0" />
        <g
           id="g118"
           transform="translate(205.959,1636.0479)">
          <path
             d="M 0,0 72.929,-36.709"
             style="fill:none;stroke:#ffffff;stroke-width:1.11000001;stroke-linecap:butt;stroke-linejoin:miter;stroke-miterlimit:4;stroke-dasharray:none;stroke-opacity:1"
             id="path120"
             inkscape:connector-curvature="0" />
        </g>
        <g
           id="g122"
           transform="translate(171.0684,1653.6118)">
          <path
             d="M 0,0 6.836,-3.441"
             style="fill:none;stroke:#ffffff;stroke-width:1.11000001;stroke-linecap:butt;stroke-linejoin:miter;stroke-miterlimit:4;stroke-dasharray:none;stroke-opacity:1"
             id="path124"
             inkscape:connector-curvature="0" />
        </g>
        <g
           id="g126"
           transform="translate(177.96,1550.1836)">
          <path
             d="M 0,0 -6.599,-3.23"
             style="fill:none;stroke:#ffffff;stroke-width:1.11000001;stroke-linecap:butt;stroke-linejoin:miter;stroke-miterlimit:4;stroke-dasharray:none;stroke-opacity:1"
             id="path128"
             inkscape:connector-curvature="0" />
        </g>
        <g
           id="g130"
           transform="translate(278.4517,1599.3384)">
          <path
             d="M 0,0 -72.458,-35.446"
             style="fill:none;stroke:#ffffff;stroke-width:1.11000001;stroke-linecap:butt;stroke-linejoin:miter;stroke-miterlimit:4;stroke-dasharray:none;stroke-opacity:1"
             id="path132"
             inkscape:connector-curvature="0" />
        </g>
        <g
           id="g134"
           transform="translate(188.3691,1580.9741)">
          <path
             d="M 0,0 36.39,72.782"
             style="fill:none;stroke:#ffffff;stroke-width:1.11000001;stroke-linecap:butt;stroke-linejoin:miter;stroke-miterlimit:4;stroke-dasharray:none;stroke-opacity:1"
             id="path136"
             inkscape:connector-curvature="0" />
        </g>
        <g
           id="g138"
           transform="translate(171.3613,1546.9531)">
          <path
             d="M 0,0 3.274,6.549"
             style="fill:none;stroke:#ffffff;stroke-width:1.11000001;stroke-linecap:butt;stroke-linejoin:miter;stroke-miterlimit:4;stroke-dasharray:none;stroke-opacity:1"
             id="path140"
             inkscape:connector-curvature="0" />
        </g>
        <g
           id="g142"
           transform="translate(274.5967,1553.9502)">
          <path
             d="M 0,0 3.421,-6.855"
             style="fill:none;stroke:#ffffff;stroke-width:1.11000001;stroke-linecap:butt;stroke-linejoin:miter;stroke-miterlimit:4;stroke-dasharray:none;stroke-opacity:1"
             id="path144"
             inkscape:connector-curvature="0" />
        </g>
        <g
           id="g146"
           transform="translate(224.7593,1653.7559)">
          <path
             d="M 0,0 36.042,-72.179"
             style="fill:none;stroke:#ffffff;stroke-width:1.11000001;stroke-linecap:butt;stroke-linejoin:miter;stroke-miterlimit:4;stroke-dasharray:none;stroke-opacity:1"
             id="path148"
             inkscape:connector-curvature="0" />
        </g>
        <g
           id="g150"
           transform="translate(243.6729,1563.8999)">
          <path
             d="M 0,0 -72.604,36.454"
             style="fill:none;stroke:#ffffff;stroke-width:1.11000001;stroke-linecap:butt;stroke-linejoin:miter;stroke-miterlimit:4;stroke-dasharray:none;stroke-opacity:1"
             id="path152"
             inkscape:connector-curvature="0" />
        </g>
        <g
           id="g154"
           transform="translate(278.0181,1546.6606)">
          <path
             d="M 0,0 -6.786,3.408"
             style="fill:none;stroke:#ffffff;stroke-width:1.11000001;stroke-linecap:butt;stroke-linejoin:miter;stroke-miterlimit:4;stroke-dasharray:none;stroke-opacity:1"
             id="path156"
             inkscape:connector-curvature="0" />
        </g>
        <g
           id="g158"
           transform="translate(271.3599,1650.0957)">
          <path
             d="M 0,0 7.092,3.516"
             style="fill:none;stroke:#ffffff;stroke-width:1.11000001;stroke-linecap:butt;stroke-linejoin:miter;stroke-miterlimit:4;stroke-dasharray:none;stroke-opacity:1"
             id="path160"
             inkscape:connector-curvature="0" />
        </g>
        <g
           id="g162"
           transform="translate(171.0684,1600.354)">
          <path
             d="M 0,0 72.67,36.043"
             style="fill:none;stroke:#ffffff;stroke-width:1.11000001;stroke-linecap:butt;stroke-linejoin:miter;stroke-miterlimit:4;stroke-dasharray:none;stroke-opacity:1"
             id="path164"
             inkscape:connector-curvature="0" />
        </g>
        <g
           id="g166"
           transform="translate(260.9111,1618.853)">
          <path
             d="M 0,0 -36.441,-72.192"
             style="fill:none;stroke:#ffffff;stroke-width:1.11000001;stroke-linecap:butt;stroke-linejoin:miter;stroke-miterlimit:4;stroke-dasharray:none;stroke-opacity:1"
             id="path168"
             inkscape:connector-curvature="0" />
        </g>
        <g
           id="g170"
           transform="translate(278.4517,1653.6118)">
          <path
             d="M 0,0 -3.478,-6.895"
             style="fill:none;stroke:#ffffff;stroke-width:1.11000001;stroke-linecap:butt;stroke-linejoin:miter;stroke-miterlimit:4;stroke-dasharray:none;stroke-opacity:1"
             id="path172"
             inkscape:connector-curvature="0" />
        </g>
        <g
           id="g174"
           transform="translate(174.6748,1647.2129)">
          <path
             d="M 0,0 -3.169,6.399"
             style="fill:none;stroke:#ffffff;stroke-width:1.11000001;stroke-linecap:butt;stroke-linejoin:miter;stroke-miterlimit:4;stroke-dasharray:none;stroke-opacity:1"
             id="path176"
             inkscape:connector-curvature="0" />
        </g>
        <g
           id="g178"
           transform="translate(224.4697,1546.6606)">
          <path
             d="M 0,0 -35.743,72.175"
             style="fill:none;stroke:#ffffff;stroke-width:1.11000001;stroke-linecap:butt;stroke-linejoin:miter;stroke-miterlimit:4;stroke-dasharray:none;stroke-opacity:1"
             id="path180"
             inkscape:connector-curvature="0" />
        </g>
        <g
           id="g182"
           transform="translate(258.4287,1599.9907)">
          <path
             d="m 0,0 c 0,-18.592 -15.073,-33.667 -33.669,-33.667 -18.594,0 -33.665,15.075 -33.665,33.667 0,18.595 15.071,33.667 33.665,33.667 C -15.073,33.667 0,18.595 0,0 Z"
             style="fill:none;stroke:#ffffff;stroke-width:1.11000001;stroke-linecap:butt;stroke-linejoin:miter;stroke-miterlimit:4;stroke-dasharray:none;stroke-opacity:1"
             id="path184"
             inkscape:connector-curvature="0" />
        </g>
        <g
           id="g186"
           transform="translate(176.4966,1576.4404)">
          <path
             d="m 0,0 c -3.477,7.11 -5.428,15.102 -5.428,23.55 0,8.451 1.951,16.444 5.428,23.555"
             style="fill:none;stroke:#ffffff;stroke-width:1.11000001;stroke-linecap:butt;stroke-linejoin:miter;stroke-miterlimit:4;stroke-dasharray:none;stroke-opacity:1"
             id="path188"
             inkscape:connector-curvature="0" />
        </g>
        <g
           id="g190"
           transform="translate(248.0469,1551.6006)">
          <path
             d="m 0,0 c -7.044,-3.399 -14.944,-5.302 -23.288,-5.302 -8.711,0 -16.936,2.076 -24.216,5.76"
             style="fill:none;stroke:#ffffff;stroke-width:1.11000001;stroke-linecap:butt;stroke-linejoin:miter;stroke-miterlimit:4;stroke-dasharray:none;stroke-opacity:1"
             id="path192"
             inkscape:connector-curvature="0" />
        </g>
        <g
           id="g194"
           transform="translate(273.0039,1623.5889)">
          <path
             d="m 0,0 c 3.489,-7.121 5.448,-15.13 5.448,-23.598 0,-8.469 -1.961,-16.485 -5.455,-23.609"
             style="fill:none;stroke:#ffffff;stroke-width:1.11000001;stroke-linecap:butt;stroke-linejoin:miter;stroke-miterlimit:4;stroke-dasharray:none;stroke-opacity:1"
             id="path196"
             inkscape:connector-curvature="0" />
        </g>
        <g
           id="g198"
           transform="translate(201.3584,1648.3301)">
          <path
             d="m 0,0 c 7.073,3.429 15.014,5.354 23.401,5.354 8.484,0 16.505,-1.968 23.639,-5.466"
             style="fill:none;stroke:#ffffff;stroke-width:1.11000001;stroke-linecap:butt;stroke-linejoin:miter;stroke-miterlimit:4;stroke-dasharray:none;stroke-opacity:1"
             id="path200"
             inkscape:connector-curvature="0" />
        </g>
        <g
           id="g202"
           transform="translate(286.6606,1653.3911)">
          <path
             d="m 0,0 0.062,-1.23 -0.148,0 c -0.029,0.218 -0.071,0.373 -0.117,0.465 -0.081,0.15 -0.187,0.262 -0.322,0.332 -0.131,0.07 -0.308,0.105 -0.522,0.105 l -0.74,0 0,-4.007 c 0,-0.32 0.037,-0.523 0.106,-0.604 0.098,-0.108 0.251,-0.161 0.453,-0.161 l 0.181,0 0,-0.144 -2.224,0 0,0.144 0.188,0 c 0.219,0 0.378,0.066 0.471,0.201 0.056,0.083 0.085,0.27 0.085,0.564 l 0,4.007 -0.631,0 c -0.243,0 -0.417,-0.017 -0.524,-0.056 -0.131,-0.047 -0.244,-0.141 -0.342,-0.281 -0.096,-0.139 -0.148,-0.327 -0.17,-0.565 l -0.147,0 L -4.279,0 0,0 Z"
             style="fill:#ffffff;fill-opacity:1;fill-rule:nonzero;stroke:none"
             id="path204"
             inkscape:connector-curvature="0" />
        </g>
        <g
           id="g206"
           transform="translate(290.1616,1648.147)">
          <path
             d="m 0,0 -2.026,4.414 0,-3.505 c 0,-0.32 0.032,-0.523 0.1,-0.604 0.097,-0.108 0.25,-0.161 0.452,-0.161 l 0.188,0 0,-0.144 -1.826,0 0,0.144 0.183,0 c 0.224,0 0.38,0.066 0.475,0.201 0.059,0.083 0.084,0.27 0.084,0.564 l 0,3.426 c 0,0.232 -0.025,0.4 -0.076,0.503 -0.036,0.077 -0.103,0.14 -0.199,0.19 -0.1,0.049 -0.256,0.074 -0.467,0.074 l 0,0.142 1.486,0 1.901,-4.103 1.87,4.103 1.486,0 0,-0.142 -0.181,0 C 3.227,5.102 3.068,5.034 2.976,4.899 2.917,4.818 2.891,4.629 2.891,4.335 l 0,-3.426 C 2.891,0.589 2.922,0.386 2.998,0.305 3.091,0.197 3.246,0.144 3.45,0.144 l 0.181,0 0,-0.144 -2.228,0 0,0.144 0.188,0 c 0.224,0 0.381,0.066 0.47,0.201 0.058,0.083 0.084,0.27 0.084,0.564 l 0,3.505 L 0.125,0 0,0 Z"
             style="fill:#ffffff;fill-opacity:1;fill-rule:nonzero;stroke:none"
             id="path208"
             inkscape:connector-curvature="0" />
        </g>
      </g>
    </g>
  </g>
</svg>
